<svg width="271" height="271" viewBox="0 0 271 271" fill="none" xmlns="http://www.w3.org/2000/svg">
<rect width="271" height="271" rx="135.5" fill="#CB6D47"/>
<path d="M143.602 61L194.742 192.372C196.706 197.408 198.88 200.906 201.266 202.865C203.791 204.684 206.036 205.663 208 205.803V210C203.791 209.72 198.81 209.58 193.058 209.58C187.446 209.44 181.764 209.37 176.012 209.37C169.558 209.37 163.455 209.44 157.702 209.58C151.95 209.58 147.39 209.72 144.023 210V205.803C151.179 205.523 155.668 204.334 157.492 202.235C159.456 199.997 159.035 195.31 156.229 188.175L120.453 90.5902L124.241 85.1338L92.2525 168.238C89.1659 175.933 87.2719 182.229 86.5704 187.125C86.0092 192.022 86.3599 195.8 87.6226 198.458C89.0256 201.116 91.2003 203.005 94.1466 204.124C97.2332 205.103 100.881 205.663 105.09 205.803V210C100.46 209.72 96.0406 209.58 91.8316 209.58C87.6226 209.44 83.3435 209.37 78.9942 209.37C75.9076 209.37 72.9613 209.44 70.1553 209.58C67.4896 209.58 65.1045 209.72 63 210V205.803C65.9463 205.243 68.9627 203.354 72.0493 200.137C75.1359 196.919 78.1524 191.462 81.0987 183.768L129.081 61C131.326 61.1399 133.711 61.2099 136.237 61.2099C138.902 61.2099 141.358 61.1399 143.602 61ZM158.334 149.561V153.758H95.6197L97.7242 149.561H158.334Z" fill="white"/>
</svg>
